<?xml version="1.0" standalone="no"?>
<!DOCTYPE svg PUBLIC "-//W3C//DTD SVG 20010904//EN"
 "http://www.w3.org/TR/2001/REC-SVG-20010904/DTD/svg10.dtd">
<svg version="1.0" xmlns="http://www.w3.org/2000/svg"
 width="128.000000pt" height="128.000000pt" viewBox="0 0 128.000000 128.000000"
 preserveAspectRatio="xMidYMid meet">

<g transform="translate(0.000000,128.000000) scale(0.100000,-0.100000)"
fill="#000000" stroke="none">
<path d="M577 1088 c-14 -18 -34 -51 -45 -74 -16 -32 -29 -43 -60 -52 -51 -15
-120 -69 -156 -121 l-28 -41 -26 20 c-32 26 -54 25 -79 -2 -32 -36 -43 -84
-41 -182 l1 -91 7 95 c8 103 23 155 49 170 26 13 62 -9 89 -55 l23 -40 -6 42
c-7 42 -5 44 52 101 38 38 78 66 115 82 49 20 58 28 72 65 9 23 29 54 45 69
l29 28 21 -40 c12 -23 21 -55 21 -71 0 -28 7 -33 108 -81 59 -28 133 -71 164
-96 l58 -45 44 30 c25 17 50 31 57 31 17 0 5 -189 -15 -254 -15 -47 -15 -51
10 -120 14 -39 34 -102 45 -141 l19 -70 -5 53 c-3 29 -19 91 -36 138 l-30 85
17 77 c20 87 25 235 8 252 -8 8 -25 1 -64 -25 l-53 -36 -26 25 c-54 50 -228
146 -266 146 -7 0 -16 19 -19 44 -7 45 -41 106 -63 113 -6 2 -22 -11 -36 -29z"/>
<path d="M454 696 c-9 -23 0 -51 16 -51 10 0 15 10 15 29 0 32 -21 47 -31 22z"/>
<path d="M530 643 c0 -30 16 -46 39 -40 14 3 22 -1 26 -14 4 -10 12 -19 19
-19 17 0 41 28 32 37 -4 4 -11 1 -17 -7 -8 -13 -10 -13 -19 0 -5 8 -10 21 -10
28 0 6 -4 12 -10 12 -5 0 -10 -4 -10 -10 0 -5 -7 -10 -15 -10 -8 0 -15 6 -15
14 0 8 -4 18 -10 21 -5 3 -10 -2 -10 -12z"/>
<path d="M872 593 c-17 -7 -38 -50 -46 -96 -8 -41 2 -147 13 -147 3 0 6 43 6
95 0 83 3 97 21 116 20 20 23 20 53 5 17 -9 38 -30 47 -47 20 -39 31 -30 14
11 -21 52 -68 79 -108 63z"/>
<path d="M747 565 c-9 -22 3 -46 22 -43 10 2 16 13 16 28 0 28 -29 40 -38 15z"/>
</g>
</svg>
