<?xml version="1.0" standalone="no"?>
<!DOCTYPE svg PUBLIC "-//W3C//DTD SVG 20010904//EN"
 "http://www.w3.org/TR/2001/REC-SVG-20010904/DTD/svg10.dtd">
<svg version="1.0" xmlns="http://www.w3.org/2000/svg"
 width="197.000000pt" height="100.000000pt" viewBox="0 0 197.000000 100.000000"
 preserveAspectRatio="xMidYMid meet">

<g transform="translate(0.000000,100.000000) scale(0.100000,-0.100000)"
fill="#000000" stroke="none">
<path d="M892 853 c-18 -9 -47 -33 -65 -53 -26 -30 -41 -39 -81 -44 -83 -13
-168 -43 -240 -87 -59 -36 -72 -40 -93 -30 -13 6 -46 11 -73 11 -85 0 -130
-59 -130 -172 0 -74 17 -56 22 22 3 60 7 73 33 100 16 17 39 33 51 36 36 9 99
-14 128 -47 30 -34 44 -33 26 1 -8 15 -8 25 -1 34 22 26 190 97 267 113 43 8
83 22 87 29 14 25 61 64 96 80 l35 17 33 -37 c18 -19 33 -44 33 -55 0 -23 -5
-21 160 -60 136 -32 233 -63 294 -93 l39 -20 84 29 c73 24 85 26 94 13 15 -23
1 -108 -28 -174 -18 -38 -23 -62 -17 -70 38 -50 95 -146 100 -168 6 -30 24
-39 24 -13 0 21 -24 67 -71 137 l-39 56 26 57 c32 70 42 162 21 190 -15 20
-16 19 -99 -8 l-84 -27 -60 24 c-77 31 -215 71 -329 94 -86 18 -89 20 -97 50
-9 34 -64 82 -94 82 -10 0 -34 -8 -52 -17z"/>
<path d="M693 534 c-6 -15 11 -34 32 -34 6 0 16 4 24 9 21 14 5 41 -24 41 -14
0 -28 -7 -32 -16z"/>
<path d="M822 498 c2 -19 10 -24 43 -26 22 -2 44 -8 50 -13 12 -12 56 -11 75
1 23 14 4 23 -21 10 -19 -11 -24 -9 -39 10 -14 19 -20 21 -38 11 -24 -13 -52
-5 -52 15 0 8 -5 14 -11 14 -6 0 -9 -10 -7 -22z"/>
<path d="M1323 450 c-17 -10 -37 -28 -42 -39 -19 -35 -11 -141 11 -141 6 0 7
22 3 54 -14 108 43 152 143 111 20 -9 47 -26 59 -37 18 -17 23 -18 23 -6 0 21
-32 47 -77 64 -53 18 -83 17 -120 -6z"/>
<path d="M1163 453 c-18 -7 -16 -40 2 -47 22 -8 45 4 45 24 0 14 -23 34 -33
29 -1 0 -8 -3 -14 -6z"/>
</g>
</svg>
